<svg xmlns="http://www.w3.org/2000/svg" x="0px" y="0px" viewBox="0 0 864 864" enable-background="new 0 0 864 864"><style>.ls0{fill:#fff}.fs0{fill:#00a2e8}</style><g><g><path class="fs0" d="M742.7,560.7l-182,182H303.3l-182-182V303.3l182-182h257.4l182,182L742.7,560.7L742.7,560.7z"/></g></g><g><path class="ls0" d="M314.5,148.3L148.3,314.5c0,2.2,0,233.3,0,235l166.2,166.2c10.9,0,87.3,0,104.1,0c0-6.8,0-311,0-317.7	c-6.4,0-127.7,0-134.2,0v68c6.7,0,59.6,0,66.2,0c0,4.8,0,176.8,0,181.6h-7.9L216.3,521.3c0-6.1,0-164.2,0-178.7l126.3-126.3h7.9	v96.2h68c0-6.9,0-157,0-164.2C392.8,148.3,332.5,148.3,314.5,148.3z"/><path class="ls0" d="M600.2,362.5c-62.8-154.9,0.2,0.6-86.8-214h-68c0,12.7,0,563.2,0,567.4h68c0-14.7,0-368.5,0-386.4	c11.2,27.6-4.2-10.4,49.5,122.1c73.8-30.6,56.4-23.4,84.7-35.1v105l-63.2,63.2l48.1,48.1l83.1-83.1c0-11.8,0-222.6,0-235	C634.4,348.4,660.2,337.7,600.2,362.5z"/></g></svg>